<svg id="Capa_1" enable-background="new 0 0 512 512" height="512" viewBox="0 0 512 512" width="512" xmlns="http://www.w3.org/2000/svg"><g><path d="m85.576 442.718h341.077c1.605 0 2.359 1.977 1.17 3.055-45.427 41.155-105.697 66.227-171.823 66.227-66.044 0-126.246-25.009-171.653-66.074-1.25-1.13-.456-3.208 1.229-3.208zm170.424-442.718c-106.671 0-198.103 65.242-236.571 157.999h473.143c-38.469-92.757-129.901-157.999-236.572-157.999z" fill="#54469d"/><path d="m427.823 445.773c-15.207 13.777-32.077 25.751-50.273 35.586h-243.1c-18.128-9.799-34.941-21.72-50.103-35.433-1.25-1.13-.456-3.208 1.229-3.208h341.077c1.605 0 2.36 1.977 1.17 3.055z" fill="#463b85"/><path d="m175.342 119.349v163.039h-154.797c-11.097 0-20.19-8.843-20.465-19.937-.053-2.144-.08-4.295-.08-6.451v-132.198c0-2.459 1.994-4.453 4.453-4.453z" fill="#ffef31"/><path d="m32.633 256c0 8.91.455 17.713 1.344 26.388h-28.225c-2.529 0-4.613-1.949-4.827-4.47-.612-7.224-.925-14.535-.925-21.918v-132.198c0-2.459 1.994-4.453 4.453-4.453h32.633c-2.46 0-4.453 1.994-4.453 4.453z" fill="#ffea00"/><path d="m343.671 119.349v168.119h-175.342v-168.119z" fill="#ff4fb8"/><path d="m512 124.336v131.664c0 7.383-.313 14.693-.925 21.918-.458 5.4-4.977 9.55-10.396 9.55h-154.764c-5.113 0-9.258-4.145-9.258-9.258v-158.136c0-.401.325-.725.725-.725h169.63c2.755 0 4.988 2.233 4.988 4.987z" fill="#6354b2"/><path d="m97.107 216.709c.617 3.452 1.866 6.583 3.585 9.172-.227.191-.45.388-.667.592-3.745 3.51-8.879 5.04-13.866 4.23-2.649-.43-5.313-.769-7.997-.769h-2.636c-5.406 0-13.173-2.898-17.375-6.299-1.644-1.33-3.535-2.335-5.572-2.953h-.328c-5.57 0-10.005-4.334-10.557-9.877-.36-3.616-1.904-6.987-4.361-9.609-3.953-4.217-5.574-10.251-3.812-15.756.905-2.83 1.026-5.852.351-8.743-1.335-5.716.481-11.709 4.763-15.723.568-.532 1.096-1.103 1.579-1.706 1.345-1.676 3.376-2.651 5.525-2.651h47.084c-3.134 5.095-4.345 11.839-3.188 18.31.656 3.667.561 7.495-.275 11.099-1.702 7.335-.277 15.299 3.736 20.891 1.972 2.748 3.355 6.125 4.011 9.792z" fill="#55271a"/><path d="m129.037 179.779c-.865 2.855-.937 5.895-.204 8.791 1.428 5.649-.742 11.519-4.954 15.546-2.043 1.954-3.549 4.403-4.369 7.11v.517c0 5.49-4.29 9.852-9.757 10.357-3.878.358-7.481 2.076-10.191 4.824-.016.001-.027.002-.043.003-.709-.549-1.379-1.16-2-1.831-1.988-2.149-4.583-3.593-7.373-4.481-5.51-1.753-9.699-6.278-11.016-11.92-.657-2.814-2.036-5.39-4.012-7.499-4.019-4.288-5.441-10.397-3.729-16.021.849-2.787.895-5.725.248-8.565-1.296-5.689.523-11.642 4.784-15.635.275-.257.54-.524.795-.798 4.774.313 9.636.474 14.567.474 10.236 0 20.171-.694 29.651-1.998.338-.047.655.141.791.454.747 1.716 1.785 3.298 3.075 4.674 4.015 4.282 5.439 10.38 3.737 15.998z" fill="#6d3326"/><path d="m52.131 248.437v32.836h-19.498v-32.836c0-11.046 8.954-20 20-20h19.497c-11.045 0-19.999 8.955-19.999 20z" fill="#463b85"/><path d="m130 248.437v32.836h-80.894v-32.836c0-11.046 8.954-20 20-20h40.894c11.046 0 20 8.955 20 20z" fill="#54469d"/><path d="m122.643 190.172v3.061c0 4.227-3.426 7.653-7.653 7.653-.755 0-1.485-.11-2.175-.314-3.751 9.898-12.033 17.567-22.315 20.475v10.451c0 5.072-4.112 9.183-9.184 9.183s-9.184-4.111-9.184-9.183v-10.451c-10.281-2.908-18.564-10.577-22.315-20.475-.689.204-1.419.314-2.175.314-4.227 0-7.653-3.426-7.653-7.653v-3.061c0-4.227 3.426-7.653 7.653-7.653v-6.122c0-18.597 15.076-33.673 33.673-33.673s33.673 15.076 33.673 33.673v6.122c4.228 0 7.655 3.427 7.655 7.653z" fill="#c96e59"/><path d="m114.99 176.397v12.245c0 15.156-10.014 27.974-23.786 32.198-13.772-4.224-23.786-17.041-23.786-32.198v-12.245c0-15.156 10.014-27.974 23.786-32.198 13.772 4.224 23.786 17.041 23.786 32.198z" fill="#d78878"/><path d="m87.605 201.995v.419c0 3.473-2.816 6.288-6.289 6.288s-6.289-2.815-6.289-6.288v-.419c0-.926.751-1.677 1.677-1.677h9.223c.927 0 1.678.751 1.678 1.677z" fill="#fff5f5"/><path d="m70.096 163.177c-10.479-.526-20.565-1.78-30.079-3.669 1.406-1.687 2.465-3.643 3.106-5.758 1.702-5.617 6.271-9.9 11.987-11.235 2.808-.656 5.395-2.039 7.499-4.012 4.283-4.014 10.381-5.438 15.999-3.737 2.76.836 5.692.931 8.5.275 4.331-1.012 8.823-.214 12.491 2.096 1.172.738 1.198 4.294-.03 4.83-1.698.741-3.465 1.33-5.283 1.755-10.177 2.378-23.419 19.494-24.19 19.455z" fill="#55271a"/><path d="m87.063 144.587c3.496-.817 6.716-2.539 9.336-4.995.994-.931 2.066-1.751 3.198-2.454 1.172.738 2.261 1.63 3.233 2.667 1.972 2.104 4.464 3.652 7.224 4.488 5.617 1.702 9.9 6.271 11.235 11.987.264 1.13.646 2.224 1.136 3.265-12.815 2.531-26.662 3.912-41.11 3.912-3.784 0-7.526-.096-11.22-.281.864-1.438 1.552-2.983 2.043-4.603 2.12-6.992 7.809-12.324 14.925-13.986z" fill="#6d3326"/><path d="m512 102.053v21.968h-479.869v-26.042h476.051c2.108 0 3.818 1.824 3.818 4.074z" fill="#c3bde1"/><path d="m32.633 97.979v26.042h-32.633v-21.287c0-2.626 2.129-4.755 4.755-4.755z" fill="#ada7d7"/><path d="m512 55v47.979h-512v-47.979c0-8.284 6.716-15 15-15h482c8.284 0 15 6.716 15 15z" fill="#988fcc"/><path d="m32.633 55v47.979h-32.633v-47.979c0-8.284 6.716-15 15-15h32.633c-8.284 0-15 6.716-15 15z" fill="#8379c2"/><path d="m42.131 72c0 5.523-4.477 10-10 10s-10-4.477-10-10 4.477-10 10-10 10 4.477 10 10zm30-10c-5.523 0-10 4.477-10 10s4.477 10 10 10 10-4.477 10-10-4.478-10-10-10z" fill="#6354b2"/><path d="m481.17 72c0 5.523-4.477 10-10 10h-352.17c-5.523 0-10-4.477-10-10s4.477-10 10-10h352.17c5.523 0 10 4.477 10 10z" fill="#fff5f5"/><path d="m460.954 167.34c.959 3.343 1.473 6.873 1.473 10.524v4.967c0 21.041-17.057 38.098-38.098 38.098-21.041 0-38.098-17.057-38.098-38.098v-4.967c0-3.651.514-7.181 1.473-10.524z" fill="#ffe5c2"/><path d="m404.415 252.828c-6.023 0-10.905-4.882-10.905-10.905v-91.253c0-6.023 4.882-10.905 10.905-10.905 6.023 0 10.905 4.882 10.905 10.905v91.253c0 6.023-4.882 10.905-10.905 10.905z" fill="#ffe5c2"/><path d="m441.456 250v29.563h-65.811v-29.563c0-11.046 8.954-20 20-20h25.811c11.046 0 20 8.954 20 20z" fill="#00d1fc"/><path d="m473.012 250v29.563h-80.894v-29.563c0-11.046 8.954-20 20-20h40.894c11.046 0 20 8.954 20 20z" fill="#64dcfc"/><path d="m465.655 191.273v4.16c0 3.866-3.134 7-7 7h-1.5c-3.912 10.326-12.756 18.227-23.656 20.827v9.78c0 5.068-4.109 9.177-9.177 9.177s-9.177-4.109-9.177-9.177v-9.783c-10.894-2.604-19.732-10.502-23.643-20.824h-1.5c-3.866 0-7-3.134-7-7v-4.16c0-3.639 2.776-6.629 6.326-6.968v-6.453c0-18.597 15.076-33.673 33.673-33.673h2.653c18.597 0 33.673 15.076 33.673 33.673v6.453c3.552.34 6.328 3.33 6.328 6.968z" fill="#ffbfab"/><path d="m459.329 177.853v12.653c0 16.089-11.284 29.543-26.37 32.879-12.977-4.677-22.255-17.099-22.255-31.687v-15.036c0-14.589 9.278-27.01 22.255-31.687 15.085 3.335 26.37 16.789 26.37 32.878z" fill="#ffcebf"/><path d="m430.617 203.558v.419c0 3.473-2.816 6.288-6.289 6.288s-6.289-2.815-6.289-6.288v-.419c0-.926.751-1.677 1.677-1.677h9.223c.927 0 1.678.751 1.678 1.677z" fill="#fff5f5"/><path d="m396.018 171c-3.087 0-6.088-.367-8.961-1.06 2.928-13.84 13.369-24.907 26.854-28.732 3.311-.939 16.26 9.308 13.427 13.39-6.878 9.912-18.341 16.402-31.32 16.402z" fill="#ffe5c2"/><path d="m461.518 169.558c-3.311.939-6.806 1.442-10.418 1.442-18.188 0-33.398-12.746-37.189-29.792 3.311-.939 6.806-1.442 10.418-1.442 18.188 0 33.398 12.745 37.189 29.792z" fill="#fff3de"/><path d="m218.394 189.63c-4.142 0-7.5-3.358-7.5-7.5v-24.814c0-4.142 3.358-7.5 7.5-7.5 4.142 0 7.5 3.358 7.5 7.5v24.814c0 4.142-3.358 7.5-7.5 7.5z" fill="#fa0"/><path d="m285.252 193.332c-4.142 0-7.5-3.358-7.5-7.5v-24.814c0-4.142 3.358-7.5 7.5-7.5 4.142 0 7.5 3.358 7.5 7.5v24.814c0 4.142-3.358 7.5-7.5 7.5z" fill="#ffb509"/><path d="m269.551 247.544v34.844h-65.811v-34.844c0-11.046 8.954-20 20-20h25.811c11.045 0 20 8.954 20 20z" fill="#00d683"/><path d="m301.106 247.544v34.844h-80.894v-34.844c0-11.046 8.954-20 20-20h40.894c11.046 0 20 8.954 20 20z" fill="#00f3a7"/><path d="m293.749 188.817v4.16c0 3.866-3.134 7-7 7h-1.5c-3.912 10.326-12.756 18.227-23.656 20.827v9.78c0 5.068-4.109 9.177-9.177 9.177-5.068 0-9.177-4.109-9.177-9.177v-9.783c-10.894-2.604-19.732-10.502-23.643-20.824h-1.5c-3.866 0-7-3.134-7-7v-4.16c0-3.639 2.776-6.629 6.326-6.968v-6.453c0-18.597 15.076-33.673 33.673-33.673h2.653c18.597 0 33.673 15.076 33.673 33.673v6.453c3.552.339 6.328 3.329 6.328 6.968z" fill="#ffbd86"/><path d="m287.423 175.397v12.653c0 16.089-11.284 29.543-26.37 32.879-12.977-4.677-22.255-17.099-22.255-31.687v-15.037c0-14.589 9.278-27.01 22.255-31.687 15.086 3.336 26.37 16.789 26.37 32.879z" fill="#fed2a4"/><path d="m258.712 201.102v.419c0 3.473-2.816 6.288-6.289 6.288s-6.289-2.815-6.289-6.288v-.419c0-.926.751-1.677 1.677-1.677h9.223c.927 0 1.678.751 1.678 1.677z" fill="#fff5f5"/><path d="m255.567 147.531c0 4.142-3.358 7.5-7.5 7.5h-21.904c-4.142 0-7.5-3.358-7.5-7.5 0-4.142 3.358-7.5 7.5-7.5h21.904c4.143 0 7.5 3.358 7.5 7.5z" fill="#fa0"/><path d="m296.929 159.52c0 4.142-3.358 7.5-7.5 7.5h-24.814c-4.142 0-7.5-3.358-7.5-7.5 0-1.683.555-3.237 1.491-4.489h-13.603c-4.142 0-7.5-3.358-7.5-7.5 0-4.142 3.358-7.5 7.5-7.5h32.465c4.142 0 7.5 3.358 7.5 7.5 0 1.684-.555 3.238-1.491 4.489h5.952c4.142 0 7.5 3.358 7.5 7.5z" fill="#ffb509"/><path d="m.922 277.881h168.519c3.259 0 5.901 2.642 5.901 5.901v156.015c0 3.426-2.777 6.203-6.203 6.203h-37.584l-10.045-9.128-33.378-1.532c-14.901-13.464-24.837-21.013-36.239-37.617-1.202-1.75-9.46-.5-10.619-2.281-22.365-34.369-36.702-74.443-40.352-117.561z" fill="#00aaf2"/><path d="m41.274 395.442c-22.365-34.369-36.702-74.442-40.352-117.561h31.711c3.64 43.002 17.91 82.975 40.171 117.283-10.19.089-31.137.881-31.53.278z" fill="#0091d0"/><path d="m343.671 283.947v155.388c0 3.681-2.984 6.665-6.665 6.665h-35.899l-12.173-6.234h-73.021l-12.173 6.234h-35.411v-168.119h169.277c3.35 0 6.065 2.716 6.065 6.066z" fill="#ffb509"/><path d="m511.078 277.881c-3.835 45.301-19.466 87.241-43.81 122.736-1.361 1.985-9.023.397-10.438 2.341-10.458 14.365-19.805 24.408-32.962 36.297l-38.187-2.043-13.048 8.788h-35.976v-168.119z" fill="#00d683"/><path d="m390.378 410.714v35.286h-17.745v-35.286c0-11.046 8.954-20 20-20h17.745c-11.046 0-20 8.954-20 20z" fill="#ffef31"/><path d="m467.268 400.617c-11.42 16.652-24.758 31.886-39.696 45.383h-38.466v-35.286c0-11.046 8.954-20 20-20h40.894c7.363 0 13.796 3.979 17.268 9.903z" fill="#fff261"/><path d="m54.189 390.714h17.872c-11.046 0-20 8.954-20 20v.051c-3.776-4.969-7.375-10.079-10.787-15.322 3.485-2.951 7.992-4.729 12.915-4.729z" fill="#ff2aaa"/><path d="m131.556 410.714v35.286h-47.128c-12.393-11.198-23.684-23.591-33.693-36.997.868-10.245 9.458-18.289 19.927-18.289h40.894c11.045 0 20 8.954 20 20z" fill="#ff4fb8"/><path d="m121.511 337.801v46.298h-43.192v-46.298c0-2.1.168-4.161.491-6.17h42.21c.322 2.009.491 4.07.491 6.17z" fill="#54469d"/><path d="m76.584 337.801v46.298h-32.35v-46.298c0-2.1.168-4.161.491-6.17h32.35c-.323 2.009-.491 4.07-.491 6.17z" fill="#463b85"/><path d="m124.199 351.987v4.16c0 3.866-3.134 7-7 7h-1.5c-3.912 10.326-12.756 18.227-23.656 20.827v9.78c0 5.068-4.109 9.177-9.177 9.177s-9.177-4.109-9.177-9.177v-9.783c-10.894-2.604-19.732-10.502-23.643-20.824h-1.5c-3.866 0-7-3.134-7-7v-4.16c0-3.639 2.776-6.629 6.326-6.968v-6.453c0-18.597 15.076-33.673 33.673-33.673h2.653c18.597 0 33.673 15.076 33.673 33.673v6.453c3.551.34 6.328 3.33 6.328 6.968z" fill="#ffbd86"/><path d="m117.872 338.567v12.653c0 16.089-11.284 29.543-26.37 32.879-12.977-4.677-22.255-17.099-22.255-31.687v-15.037c0-14.589 9.278-27.01 22.255-31.687 15.086 3.336 26.37 16.789 26.37 32.879z" fill="#fed2a4"/><path d="m89.161 364.272v.419c0 3.473-2.816 6.288-6.289 6.288s-6.289-2.815-6.289-6.288v-.419c0-.926.751-1.677 1.677-1.677h9.223c.927 0 1.678.751 1.678 1.677z" fill="#fff5f5"/><path d="m121.199 332.872h-52.824c1.909-14.993 12.411-27.303 26.412-31.837 14.002 4.534 24.503 16.844 26.412 31.837z" fill="#54469d"/><path d="m69.247 332.872h-24.702c2.421-19.012 18.657-33.709 38.327-33.709 4.319 0 8.473.709 12.351 2.016-13.783 4.647-24.087 16.856-25.976 31.693z" fill="#463b85"/><path d="m391.298 324.787v21.021c0 2.209-1.791 4-4 4s-4-1.791-4-4v-21.021c0-2.209 1.791-4 4-4s4 1.791 4 4z" fill="#55271a"/><path d="m459.334 328.891v22.027c0 6.449-5.228 11.678-11.678 11.678s-11.678-5.228-11.678-11.678v-43.024h2.359c11.597 0 20.997 9.4 20.997 20.997z" fill="#6d3326"/><path d="m462.643 352.449v3.061c0 4.227-3.426 7.653-7.653 7.653-.755 0-1.485-.11-2.175-.314-3.751 9.898-12.033 17.567-22.315 20.475v10.451c0 5.072-4.112 9.183-9.184 9.183s-9.184-4.112-9.184-9.183v-10.451c-10.281-2.908-18.564-10.577-22.315-20.475-.689.204-1.419.314-2.175.314-4.227 0-7.653-3.426-7.653-7.653v-3.061c0-4.227 3.426-7.653 7.653-7.653v-6.122c0-18.597 15.076-33.673 33.673-33.673s33.673 15.076 33.673 33.673v6.122c4.228 0 7.655 3.426 7.655 7.653z" fill="#c96e59"/><path d="m454.99 338.673v12.245c0 15.156-10.014 27.974-23.786 32.198-13.772-4.224-23.786-17.041-23.786-32.198v-12.245c0-15.156 10.014-27.974 23.786-32.198 13.772 4.224 23.786 17.042 23.786 32.198z" fill="#d78878"/><path d="m427.605 364.272v.419c0 3.473-2.816 6.288-6.289 6.288s-6.289-2.815-6.289-6.288v-.419c0-.926.751-1.677 1.677-1.677h9.223c.927 0 1.678.751 1.678 1.677z" fill="#fff5f5"/><path d="m434.293 311.199c-2.38 9.579-11.037 16.677-21.352 16.677h-26.643c-1.657 0-3-1.343-3-3 0-12.151 9.85-22 22.001-22h22.348c4.371 0 7.701 4.08 6.646 8.323z" fill="#55271a"/><path d="m459.334 305.876c0 12.151-9.85 22-22.001 22h-28.227c-1.657 0-3-1.343-3-3 0-12.151 9.85-22 22.001-22h28.227c1.657 0 3 1.343 3 3z" fill="#6d3326"/><path d="m241.612 390.714c-11.046 0-20 8.954-20 20v35.286h-17.872v-35.286c0-11.046 8.954-20 20-20z" fill="#c9f0ff"/><path d="m301.106 410.714v35.286h-80.894v-35.286c0-11.046 8.954-20 20-20h40.894c11.046 0 20 8.954 20 20z" fill="#fff"/><path d="m293.749 352.449v3.061c0 4.227-3.426 7.653-7.653 7.653-.755 0-1.485-.11-2.175-.314-3.751 9.898-12.033 17.567-22.315 20.475v10.451c0 5.072-4.112 9.183-9.184 9.183s-9.184-4.112-9.184-9.183v-10.451c-10.281-2.908-18.564-10.577-22.315-20.475-.689.204-1.419.314-2.175.314-4.227 0-7.653-3.426-7.653-7.653v-3.061c0-4.227 3.426-7.653 7.653-7.653v-6.122c0-18.597 15.076-33.673 33.673-33.673s33.673 15.076 33.673 33.673v6.122c4.229 0 7.655 3.426 7.655 7.653z" fill="#883f2e"/><path d="m286.096 338.673v12.245c0 15.156-10.014 27.974-23.786 32.198-13.772-4.224-23.786-17.041-23.786-32.198v-12.245c0-15.156 10.014-27.974 23.786-32.198 13.772 4.224 23.786 17.042 23.786 32.198z" fill="#a44f3e"/><path d="m258.712 364.272v.419c0 3.473-2.816 6.288-6.289 6.288s-6.289-2.815-6.289-6.288v-.419c0-.926.751-1.677 1.677-1.677h9.223c.927 0 1.678.751 1.678 1.677z" fill="#fff5f5"/><path d="m241.316 325.207c-6.418-.617-12.498-1.758-18.079-3.34 0-7.998 5.293-14.76 12.567-16.973 1.435-5.131 5.311-8.808 9.868-8.808h13.501c2.039 0 3.941.736 5.55 2.009.328.259-2.529 6.485-3.373 9.962-8.354 2.861-19.473 17.204-20.034 17.15z" fill="#55271a"/><path d="m241.316 325.207c2.161-8.131 8.423-14.59 16.437-17.029 1.224-4.375 3.74-7.979 6.97-10.082 1.987 1.572 3.526 3.963 4.319 6.798 7.274 2.214 12.567 8.975 12.567 16.973-8.716 2.47-18.647 3.868-29.186 3.868-3.791 0-7.502-.182-11.107-.528z" fill="#6d3326"/><path d="m416.248 188.466c0 2.315-1.877 4.192-4.192 4.192s-4.192-1.877-4.192-4.192 1.877-4.192 4.192-4.192c2.315-.001 4.192 1.876 4.192 4.192zm20.354-4.193c-2.315 0-4.192 1.877-4.192 4.192s1.877 4.192 4.192 4.192 4.192-1.877 4.192-4.192-1.877-4.192-4.192-4.192z" fill="#006e42"/><path d="m73.236 186.903c0 2.315-1.877 4.192-4.192 4.192s-4.192-1.877-4.192-4.192 1.877-4.192 4.192-4.192 4.192 1.877 4.192 4.192zm20.354-4.192c-2.315 0-4.192 1.877-4.192 4.192s1.877 4.192 4.192 4.192 4.192-1.877 4.192-4.192-1.877-4.192-4.192-4.192z" fill="#55271a"/><path d="m244.342 186.009c0 2.315-1.877 4.192-4.192 4.192s-4.192-1.877-4.192-4.192 1.877-4.192 4.192-4.192 4.192 1.877 4.192 4.192zm20.354-4.192c-2.315 0-4.192 1.877-4.192 4.192s1.877 4.192 4.192 4.192 4.192-1.877 4.192-4.192-1.876-4.192-4.192-4.192z" fill="#0067c5"/><path d="m74.791 349.18c0 2.315-1.877 4.192-4.192 4.192s-4.192-1.877-4.192-4.192 1.877-4.192 4.192-4.192 4.192 1.876 4.192 4.192zm20.355-4.193c-2.315 0-4.192 1.877-4.192 4.192s1.877 4.192 4.192 4.192 4.192-1.877 4.192-4.192-1.877-4.192-4.192-4.192z" fill="#0067c5"/><g fill="#55271a"><path d="m244.342 349.18c0 2.315-1.877 4.192-4.192 4.192s-4.192-1.877-4.192-4.192 1.877-4.192 4.192-4.192 4.192 1.876 4.192 4.192zm20.354-4.193c-2.315 0-4.192 1.877-4.192 4.192s1.877 4.192 4.192 4.192 4.192-1.877 4.192-4.192-1.876-4.192-4.192-4.192z"/><path d="m413.236 349.18c0 2.315-1.877 4.192-4.192 4.192s-4.192-1.877-4.192-4.192 1.877-4.192 4.192-4.192c2.315-.001 4.192 1.876 4.192 4.192zm20.354-4.193c-2.315 0-4.192 1.877-4.192 4.192s1.877 4.192 4.192 4.192 4.192-1.877 4.192-4.192-1.877-4.192-4.192-4.192z"/></g></g></svg>